<svg width="24" height="24" fill="none" xmlns="http://www.w3.org/2000/svg" style="background:#252525"><path fill-rule="evenodd" clip-rule="evenodd" d="M6 6a2 2 0 0 1 2-2h8a2 2 0 0 1 2 2v11a2 2 0 0 1-1 1.732v.018a1.25 1.25 0 0 1-2.475.25h-5.05A1.25 1.25 0 0 1 7 18.75v-.018A2 2 0 0 1 6 17V6zm1 2a1 1 0 0 1 1-1h8a1 1 0 0 1 1 1v5.5a2 2 0 0 1-2 2H9a2 2 0 0 1-2-2V8zm2.5-3a.5.5 0 0 0 0 1h5a.5.5 0 0 0 0-1h-5zM15 17a.5.5 0 0 1 .5-.5h1a.5.5 0 0 1 .5.5v.5a.5.5 0 0 1-.5.5h-1a.5.5 0 0 1-.5-.5V17zm-7.5-.5a.5.5 0 0 0-.5.5v.5a.5.5 0 0 0 .5.5h1a.5.5 0 0 0 .5-.5V17a.5.5 0 0 0-.5-.5h-1z" fill="#fff"/></svg>